HIERARCHY
ROOT Hips
{
	OFFSET 51.771000 -9.537876 100.708000
	CHANNELS 6 Xposition Yposition Zposition Xrotation Yrotation Zrotation
	JOINT spine
	{
		OFFSET 0.000000 -0.507026 8.817047
		CHANNELS 3 Xrotation Yrotation Zrotation
		JOINT spine1
		{
			OFFSET 0.000000 -0.000002 10.776604
			CHANNELS 3 Xrotation Yrotation Zrotation
			JOINT spine2
			{
				OFFSET 0.000000 -0.000001 10.325897
				CHANNELS 3 Xrotation Yrotation Zrotation
				JOINT Neck
				{
					OFFSET 0.000000 -1.263955 26.511002
					CHANNELS 3 Xrotation Yrotation Zrotation
					JOINT Head
					{
						OFFSET 0.000000 -0.000001 8.009659
						CHANNELS 3 Xrotation Yrotation Zrotation
						End Site
						{
							OFFSET 0.000000 6.393857 19.387894
						}
					}
				}
				JOINT RightShoulder
				{
					OFFSET -4.347950 0.605420 11.151199
					CHANNELS 3 Xrotation Yrotation Zrotation
					JOINT RightArm
					{
						OFFSET 0.000000 -0.000003 14.625793
						CHANNELS 3 Xrotation Yrotation Zrotation
						JOINT RightArmRoll
						{
							OFFSET 0.000000 -0.000001 7.383392
							CHANNELS 3 Xrotation Yrotation Zrotation
							JOINT RightForeArm
							{
								OFFSET 0.000000 -0.000004 21.505203
								CHANNELS 3 Xrotation Yrotation Zrotation
								JOINT RightForeArmRoll
								{
									OFFSET 0.000000 -0.000001 8.285324
									CHANNELS 3 Xrotation Yrotation Zrotation
									JOINT RightHand
									{
										OFFSET 0.000000 -0.000003 16.626801
										CHANNELS 3 Xrotation Yrotation Zrotation
										End Site
										{
											OFFSET 0.000000 0.000000 0.100006
										}
									}
								}
							}
						}
					}
				}
				JOINT LeftShoulder
				{
					OFFSET 4.347950 0.605420 11.151199
					CHANNELS 3 Xrotation Yrotation Zrotation
					JOINT LeftArm
					{
						OFFSET 0.000000 -0.000003 14.625793
						CHANNELS 3 Xrotation Yrotation Zrotation
						JOINT LeftArmRoll
						{
							OFFSET 0.000000 -0.000001 7.383392
							CHANNELS 3 Xrotation Yrotation Zrotation
							JOINT LeftForeArm
							{
								OFFSET 0.000000 -0.000004 21.505203
								CHANNELS 3 Xrotation Yrotation Zrotation
								JOINT LeftForeArmRoll
								{
									OFFSET 0.000000 -0.000001 8.285324
									CHANNELS 3 Xrotation Yrotation Zrotation
									JOINT LeftHand
									{
										OFFSET 0.000000 -0.000003 16.626801
										CHANNELS 3 Xrotation Yrotation Zrotation
										End Site
										{
											OFFSET 0.000000 0.000000 0.100006
										}
									}
								}
							}
						}
					}
				}
			}
		}
	}
	JOINT RightUpLeg
	{
		OFFSET -7.815102 1.202170 -1.433090
		CHANNELS 3 Xrotation Yrotation Zrotation
		JOINT RightUpLegRoll
		{
			OFFSET 0.000000 -0.000003 19.495903
			CHANNELS 3 Xrotation Yrotation Zrotation
			JOINT RightLeg
			{
				OFFSET 0.000000 0.000004 -24.142700
				CHANNELS 3 Xrotation Yrotation Zrotation
				JOINT RightLegRoll
				{
					OFFSET 0.000000 -0.000004 24.221703
					CHANNELS 3 Xrotation Yrotation Zrotation
					JOINT RightFoot
					{
						OFFSET 0.000000 -0.000004 20.160500
						CHANNELS 3 Xrotation Yrotation Zrotation
						JOINT RightToeBase
						{
							OFFSET 0.000000 -0.000003 16.853195
							CHANNELS 3 Xrotation Yrotation Zrotation
							End Site
							{
								OFFSET 0.007145 0.940779 8.161865
							}
						}
					}
				}
			}
		}
	}
	JOINT LeftUpLeg
	{
		OFFSET 7.815102 1.202170 -1.433090
		CHANNELS 3 Xrotation Yrotation Zrotation
		JOINT LeftUpLegRoll
		{
			OFFSET 0.000000 -0.000003 19.496002
			CHANNELS 3 Xrotation Yrotation Zrotation
			JOINT LeftLeg
			{
				OFFSET 0.000000 -0.000004 24.142601
				CHANNELS 3 Xrotation Yrotation Zrotation
				JOINT LeftLegRoll
				{
					OFFSET 0.000000 -0.000005 24.445602
					CHANNELS 3 Xrotation Yrotation Zrotation
					JOINT LeftFoot
					{
						OFFSET 0.000000 -0.000003 19.936600
						CHANNELS 3 Xrotation Yrotation Zrotation
						JOINT LeftToeBase
						{
							OFFSET 0.000000 -0.000003 16.853195
							CHANNELS 3 Xrotation Yrotation Zrotation
							End Site
							{
								OFFSET -0.032013 0.940779 8.161865
							}
						}
					}
				}
			}
		}
	}
}
MOTION
Frames: 10
Frame Time: 0.041667
51.476303 -9.012086 100.719994 -4.022669 -0.362994 1.907923 -1.771319 -0.175862 -0.044170 0.460078 -0.334702 -0.079995 2.105166 -0.335584 -0.075942 29.595630 2.566031 1.997282 -9.981682 3.276502 2.228344 -2.777406 -65.981369 -4.050649 -42.279619 -110.548722 -27.595042 0.000002 -0.000001 -0.000001 5.677636 -14.291251 0.425759 0.000003 0.000007 -2.999991 -5.000239 -7.998752 0.000166 -9.233931 63.497728 11.211061 -36.839616 113.250970 30.358862 0.000005 -0.000002 0.000001 5.096938 12.573980 -0.151941 0.000003 -0.000009 3.004999 -5.000227 7.998712 -0.000147 3.008367 -176.299094 0.741705 -179.999991 0.000005 -1.196007 171.952922 -0.733706 -0.488732 -0.000008 0.000000 0.167617 70.777849 6.880289 2.045244 25.699430 -7.354183 0.361888 2.610346 176.464658 1.676124 -0.000005 -0.000004 -1.167080 -6.086630 2.119416 0.377964 -0.000005 -0.000003 -0.083682 69.431892 -6.918984 -2.017884 25.456955 7.355613 0.000000 
51.466400 -9.021262 100.718002 -4.035343 -0.361563 1.898313 -1.768699 -0.175446 -0.041444 0.465318 -0.336060 -0.075408 2.110406 -0.336891 -0.071342 29.558436 2.544527 2.004327 -9.929571 3.318587 2.229687 -2.824284 -65.984518 -4.103916 -42.232532 -110.481090 -27.688332 0.000000 -0.000001 -0.000001 5.935995 -14.381115 0.459751 0.000002 0.000007 -2.999989 -5.000240 -7.998753 0.000164 -9.190009 63.482538 11.159550 -36.667707 113.179704 30.310570 0.000005 -0.000002 0.000000 5.272770 12.678078 -0.179639 0.000005 -0.000009 3.004999 -5.000228 7.998712 -0.000147 3.024794 -176.301143 0.740323 -179.999991 0.000005 -1.196007 171.955477 -0.728760 -0.488997 -0.000008 0.000000 0.167617 70.778921 6.880293 2.045181 25.699529 -7.354177 0.361932 2.638904 176.460751 1.667990 -0.000005 -0.000004 -1.167080 -6.069871 2.122843 0.377391 -0.000005 -0.000003 -0.083683 69.424160 -6.918967 -2.017963 25.456953 7.355613 0.000001 
51.451900 -9.041721 100.720001 -4.049251 -0.360051 1.888482 -1.765677 -0.175012 -0.038531 0.471375 -0.337495 -0.070477 2.116467 -0.338271 -0.066398 29.518626 2.522157 2.011327 -9.875707 3.361399 2.230725 -2.874240 -65.986492 -4.160538 -42.184222 -110.415704 -27.778355 -0.000000 0.000000 0.000000 6.189412 -14.470847 0.494336 0.000003 0.000008 -2.999990 -5.000240 -7.998752 0.000166 -9.145013 63.465886 11.106690 -36.495531 113.109982 30.260948 0.000003 -0.000002 0.000001 5.445357 12.781872 -0.207897 0.000004 -0.000009 3.005000 -5.000229 7.998712 -0.000147 3.042633 -176.304190 0.738875 -179.999991 0.000005 -1.196007 171.957949 -0.723813 -0.489263 -0.000007 0.000000 0.167617 70.780205 6.880300 2.045201 25.699637 -7.354178 0.361977 2.669575 176.455834 1.659404 -0.000005 -0.000004 -1.167080 -6.052063 2.126303 0.376754 -0.000005 -0.000003 -0.083683 69.415916 -6.918994 -2.017883 25.456955 7.355614 0.000001 
51.465698 -9.034854 100.717003 -4.064020 -0.358477 1.878500 -1.762369 -0.174562 -0.035488 0.478003 -0.338982 -0.065307 2.123087 -0.339700 -0.061213 29.476805 2.499173 2.018295 -9.820623 3.404728 2.231515 -2.926335 -65.987714 -4.219510 -42.137175 -110.350797 -27.868411 0.000001 0.000000 -0.000001 6.439434 -14.560519 0.529560 -0.000001 0.000007 -2.999989 -5.000239 -7.998753 0.000166 -9.099234 63.447963 11.052851 -36.320890 113.042383 30.207970 0.000004 -0.000002 0.000000 5.615700 12.885252 -0.236695 0.000004 -0.000009 3.005000 -5.000230 7.998710 -0.000147 3.061450 -176.307277 0.737415 -179.999991 0.000005 -1.196007 171.960367 -0.717880 -0.489405 -0.000007 0.000000 0.167617 70.781694 6.880303 2.045110 25.699734 -7.354183 0.362015 2.701730 176.450929 1.650541 -0.000004 -0.000004 -1.167080 -6.033514 2.129797 0.376074 -0.000005 -0.000003 -0.083683 69.407447 -6.919013 -2.017915 25.456957 7.355614 0.000001 
51.461899 -9.047185 100.716995 -4.079280 -0.356867 1.868419 -1.758901 -0.174104 -0.032370 0.484957 -0.340498 -0.059999 2.130048 -0.341157 -0.055889 29.433881 2.475829 2.025245 -9.764829 3.448351 2.232126 -2.979663 -65.988493 -4.279820 -42.088975 -110.286873 -27.956383 -0.000000 0.000000 -0.000000 6.687600 -14.650097 0.565488 0.000002 0.000007 -2.999991 -5.000240 -7.998751 0.000165 -9.053083 63.429446 10.998538 -36.144757 112.975994 30.152942 0.000005 -0.000002 0.000001 5.784839 12.988390 -0.266081 0.000003 -0.000009 3.005000 -5.000231 7.998713 -0.000148 3.080838 -176.310323 0.735950 -179.999991 0.000005 -1.196007 171.962785 -0.712934 -0.488675 -0.000007 0.000000 0.167617 70.783183 6.880310 2.045219 25.699837 -7.354176 0.362049 2.734741 176.445042 1.641462 -0.000005 -0.000004 -1.167080 -6.014544 2.133293 0.375368 -0.000006 -0.000003 -0.083682 69.398882 -6.918985 -2.017844 25.456959 7.355613 0.000001 
51.456299 -9.046576 100.730995 -4.094660 -0.355243 1.858329 -1.755377 -0.173644 -0.029233 0.491992 -0.342021 -0.054657 2.137078 -0.342619 -0.050532 29.390758 2.452398 2.032135 -9.708860 3.492045 2.232622 -3.033265 -65.989053 -4.340448 -42.040508 -110.222963 -28.043865 -0.000000 -0.000000 -0.000000 6.935469 -14.739635 0.602210 0.000002 0.000007 -2.999990 -5.000240 -7.998752 0.000165 -9.006843 63.410725 10.944125 -35.967882 112.909850 30.096955 0.000005 -0.000003 0.000000 5.953803 13.091564 -0.296094 0.000006 -0.000009 3.004999 -5.000229 7.998711 -0.000147 3.100364 -176.312400 0.734534 -179.999991 0.000005 -1.196007 171.965203 -0.706986 -0.488803 -0.000007 0.000000 0.167617 70.784788 6.880318 2.045121 25.699931 -7.354178 0.362085 2.767963 176.440151 1.632381 -0.000005 -0.000004 -1.167080 -5.995474 2.136798 0.374654 -0.000005 -0.000003 -0.083682 69.390207 -6.918989 -2.017888 25.456957 7.355614 0.000002 
51.454205 -9.044793 100.727989 -4.109797 -0.353631 1.848281 -1.751946 -0.173187 -0.026134 0.498864 -0.343527 -0.049382 2.143949 -0.344066 -0.045243 29.348151 2.429125 2.039011 -9.653250 3.535600 2.233090 -3.086281 -65.989798 -4.400424 -41.990920 -110.158800 -28.130534 0.000002 0.000000 -0.000001 7.184608 -14.829177 0.639807 0.000003 0.000008 -2.999990 -5.000239 -7.998751 0.000165 -8.960921 63.392365 10.890082 -35.790816 112.842914 30.040961 0.000005 -0.000003 0.000001 6.123608 13.194651 -0.326747 0.000004 -0.000009 3.005000 -5.000227 7.998711 -0.000147 3.119605 -176.315446 0.733066 -179.999991 0.000005 -1.196007 171.967634 -0.701053 -0.488932 -0.000007 0.000000 0.167617 70.786277 6.880323 2.045130 25.700035 -7.354181 0.362124 2.800760 176.435247 1.623371 -0.000005 -0.000004 -1.167080 -5.976616 2.140303 0.373950 -0.000006 -0.000003 -0.083683 69.381635 -6.918997 -2.017923 25.456955 7.355614 0.000001 
51.463600 -9.049225 100.732994 -4.124319 -0.352054 1.838345 -1.748717 -0.172741 -0.023128 0.505328 -0.344995 -0.044279 2.150419 -0.345475 -0.040125 29.306856 2.406279 2.045857 -9.598516 3.578801 2.233609 -3.137765 -65.991054 -4.458726 -41.943160 -110.092705 -28.219931 0.000000 0.000000 0.000000 7.436548 -14.918661 0.678357 0.000004 0.000007 -2.999989 -5.000238 -7.998753 0.000166 -8.915604 63.374675 10.836803 -35.614273 112.774203 29.985996 0.000004 -0.000002 0.000000 6.295278 13.297820 -0.358102 0.000004 -0.000009 3.005000 -5.000227 7.998711 -0.000148 3.138151 -176.318519 0.731602 -179.999991 0.000005 -1.196007 171.970066 -0.696106 -0.489201 -0.000007 0.000000 0.167617 70.787760 6.880296 2.045133 25.700132 -7.354175 0.362156 2.832495 176.430343 1.614561 -0.000005 -0.000004 -1.167080 -5.958275 2.143776 0.373272 -0.000005 -0.000003 -0.083683 69.373275 -6.918975 -2.017942 25.456957 7.355613 0.000002 
51.462006 -9.064405 100.734001 -4.137845 -0.350534 1.828581 -1.745819 -0.172309 -0.020272 0.511140 -0.346399 -0.039450 2.156229 -0.346826 -0.035282 29.267794 2.384113 2.052678 -9.545176 3.621426 2.234238 -3.186840 -65.993260 -4.514396 -41.896353 -110.024410 -28.311817 0.000000 0.000000 -0.000001 7.692858 -15.008132 0.717981 0.000001 0.000007 -2.999990 -5.000241 -7.998751 0.000165 -8.871244 63.358331 10.784702 -35.438935 112.702752 29.933103 0.000003 -0.000003 0.000000 6.469863 13.401333 -0.390240 0.000004 -0.000009 3.004999 -5.000230 7.998711 -0.000147 3.155554 -176.321579 0.730145 -179.999991 0.000005 -1.196007 171.972566 -0.691159 -0.488473 -0.000007 0.000000 0.167617 70.788934 6.880299 2.045261 25.700235 -7.354179 0.362204 2.862527 176.425453 1.606072 -0.000005 -0.000004 -1.167080 -5.940777 2.147227 0.372641 -0.000005 -0.000003 -0.083683 69.365236 -6.918964 -2.017941 25.456955 7.355613 0.000002 
51.465099 -9.063777 100.734001 -4.150036 -0.349099 1.819070 -1.743356 -0.171900 -0.017620 0.516053 -0.347719 -0.034997 2.161140 -0.348097 -0.030817 29.231765 2.362896 2.059492 -9.493773 3.663259 2.235061 -3.232562 -65.996710 -4.566404 -41.849829 -109.953731 -28.405869 0.000002 0.000000 -0.000000 7.955104 -15.097693 0.758804 0.000003 0.000006 -2.999990 -5.000241 -7.998751 0.000165 -8.828183 63.343680 10.734209 -35.262539 112.629116 29.880165 0.000002 -0.000001 0.000001 6.648394 13.505148 -0.423205 0.000005 -0.000009 3.005000 -5.000230 7.998712 -0.000147 3.171422 -176.323628 0.728757 -179.999991 0.000005 -1.196007 171.975120 -0.686213 -0.488741 -0.000007 0.000000 0.167617 70.789904 6.880336 2.045108 25.700347 -7.354179 0.362251 2.890236 176.421546 1.598062 -0.000005 -0.000004 -1.167080 -5.924439 2.150642 0.372075 -0.000005 -0.000003 -0.083683 69.357627 -6.918971 -2.017919 25.456953 7.355613 0.000001 
